# xmcd
# 
# Track frame offsets:
#     150
#     66223
#     97897
#     127664
#     179647
#     230847
#     260142
#     310101
# 
# Disc length: 4696
# 
# Revision: 0
# Processed by: cddbd v1.5.2PL0 Copyright (c) Steve Scherf et al.
# Submitted via: fre:ac v1.0.31
# 
DISCID=6c125608
DTITLE=Markus Heitz - Oneiros - Tödlicher Fluch
DYEAR=2012
DGENRE=Hörbuch
TTITLE0=15 Oneiros - Tödlicher Fluch
TTITLE1=16 Oneiros - Tödlicher Fluch
TTITLE2=17 Oneiros - Tödlicher Fluch
TTITLE3=18 Oneiros - Tödlicher Fluch
TTITLE4=19 Oneiros - Tödlicher Fluch
TTITLE5=20 Oneiros - Tödlicher Fluch
TTITLE6=21 Oneiros - Tödlicher Fluch
TTITLE7=22 Oneiros - Tödlicher Fluch
EXTD=
EXTT0=
EXTT1=
EXTT2=
EXTT3=
EXTT4=
EXTT5=
EXTT6=
EXTT7=
PLAYORDER=
